<svg xmlns="http://www.w3.org/2000/svg" width="140" height="140" viewBox="0 0 140 140">
  <g id="whatsapp-icon" fill="none" stroke="#A67B0B" stroke-width="3.6" stroke-linecap="round" stroke-linejoin="round">
    <path id="bubble" d="M70 23c-25.4 0-46 18.5-46 41.3 0 8.7 3 16.8 8.1 23.5L26 108l21.5-6.2c6.6 3.2 14.3 5 22.5 5 25.4 0 46-18.5 46-41.3S95.4 23 70 23z"/>
    <path id="phone" d="M53.6 44.8c2.2-2.1 4.5-1.4 5.9.7l7.2 10.4c1.2 1.8.8 3.7-.5 5.1l-4.2 4.3c4.2 8.5 10.8 14.2 19.8 17.6l4.3-4.3c1.5-1.5 3.5-1.8 5.4-.6l10.2 6.5c2.3 1.5 2.7 4.1.8 6.2-4.4 5-10.4 7.3-16.5 5.9-17.9-4.1-36.1-21.6-41.7-39.3-1.8-5.8.1-9.1 4.6-13.3z"/>
  </g>
</svg>